<svg width="27" height="24" viewBox="0 0 27 24" fill="none" xmlns="http://www.w3.org/2000/svg">
<path d="M24 13.096L14 23L4 13.096C3.34041 12.4542 2.82086 11.6827 2.47406 10.8302C2.12727 9.97768 1.96075 9.0626 1.98498 8.14258C2.00922 7.22256 2.22368 6.31752 2.61488 5.48445C3.00607 4.65139 3.56551 3.90834 4.25798 3.30211C4.95045 2.69588 5.76094 2.23959 6.63842 1.96198C7.51589 1.68437 8.44134 1.59145 9.35649 1.68907C10.2716 1.78669 11.1567 2.07274 11.9558 2.52921C12.755 2.98568 13.451 3.60267 14 4.34133C14.5514 3.60803 15.2482 2.99643 16.0468 2.54481C16.8454 2.09319 17.7287 1.81127 18.6412 1.7167C19.5538 1.62212 20.4761 1.71693 21.3504 1.99519C22.2246 2.27345 23.032 2.72917 23.7221 3.33382C24.4121 3.93847 24.9699 4.67905 25.3606 5.50919C25.7512 6.33934 25.9663 7.24118 25.9924 8.15828C26.0185 9.07538 25.855 9.98799 25.5122 10.839C25.1693 11.69 24.6545 12.4611 24 13.104" stroke="#191847" stroke-width="2" stroke-linecap="round" stroke-linejoin="round"/>
</svg>
